:SAMPLES-PER-SECOND 30
:FULLY-SPECIFIED
:DEGREES
386
root  -10.3136 34.5399 4.28042 -161.696 0.765503 -178.008
RightUpLeg  -23 -8.21715 3.6796
RightLeg  7.10248 -1.57712 -0.0929903
RightFoot  8.26004 0.0426153 -0.0497059
RightToes  -24.7157 -0.107672 -0.211889
Spine  2.8797 0.933781 0.523889
Spine1  5.62952 2.24659 1.30092
HEad  -47.2305 1.27259 -1.94707
LeftShoulder1  -1.94126e-019 -3.10601e-018 -2.51263e-017
LeftArm  4.10612 -3.60258 -84.0605
LeftForeArm  24.9413 -30.4824 -5.21877
LeftHand  -0.368766 -0.0133499 7.98762
RightShoulder  -4.96962e-017 0 -2.36833e-017
RightArm  -14.0432 -5.06171 77.3062
RightForeArm  44.043 25.9994 3.20391
RightHand  -0.318397 -2.93599 -14.6654
LeftUpLeg  -28.7709 5.10524 3.1507
LeftLeg  19.6542 10.5326 2.99219
LeftFoot  4.05285 -0.0268065 0.956892
LeftToes  -23.6937 2.14545e-006 -7.7278e-009
387
root  -10.3625 34.6208 3.687 -163.714 0.884979 -178.389
RightUpLeg  -19.7603 -7.58506 2.60306
RightLeg  6.68554 -2.39984 -0.12452
RightFoot  7.72245 0.045726 -0.146092
RightToes  -24.5006 -0.108257 -0.212551
Spine  2.05952 0.779286 0.41726
Spine1  4.03826 1.85827 1.21266
HEad  -48.5291 1.63814 -1.72413
LeftShoulder1  -1.94126e-019 -3.10601e-018 -2.51263e-017
LeftArm  3.96066 -0.494654 -83.1707
LeftForeArm  25.9282 -31.9206 -5.51755
LeftHand  -0.401772 -0.822162 7.63324
RightShoulder  -4.96962e-017 0 -2.36833e-017
RightArm  -13.9494 -7.93903 77.2796
RightForeArm  44.0437 27.5547 3.53378
RightHand  -0.312395 -2.98149 -14.6461
LeftUpLeg  -24.8687 4.29541 3.04154
LeftLeg  17.9252 11.3576 2.85931
LeftFoot  4.02807 -0.0284013 1.00532
LeftToes  -23.0117 2.14545e-006 -7.7278e-009
388
root  -10.3989 34.6703 3.12829 -165.486 0.876877 -178.786
RightUpLeg  -17.0259 -6.8885 1.6463
RightLeg  6.68255 -3.33574 -0.173231
RightFoot  6.98987 0.0468144 -0.227657
RightToes  -24.2773 -0.108794 -0.213113
Spine  1.33953 0.67923 0.32261
Spine1  2.61451 1.62061 1.09476
HEad  -50.0082 1.86077 -1.42567
LeftShoulder1  -1.94126e-019 -3.10601e-018 -2.51263e-017
LeftArm  3.56211 2.41317 -82.4385
LeftForeArm  26.8755 -32.959 -5.72658
LeftHand  -0.395656 -0.89987 7.4322
RightShoulder  -4.96962e-017 0 -2.36833e-017
RightArm  -14.3622 -10.5997 77.3185
RightForeArm  44.374 28.3216 3.6849
RightHand  -0.317315 -2.92412 -14.5438
LeftUpLeg  -21.259 2.9851 2.93079
LeftLeg  16.1613 12.5805 2.75758
LeftFoot  4.01656 -0.0320842 1.08541
LeftToes  -22.609 2.14545e-006 -7.7278e-009
389
root  -10.422 34.7014 2.60795 -167.068 0.869934 -179.181
RightUpLeg  -14.5082 -6.35988 0.84336
RightLeg  6.57457 -4.02267 -0.201433
RightFoot  6.31113 0.0448866 -0.262365
RightToes  -24.031 -0.109286 -0.213581
Spine  0.721185 0.603023 0.25185
Spine1  1.38317 1.44545 1.00153
HEad  -51.8631 2.04291 -0.983862
LeftShoulder1  -1.94126e-019 -3.10601e-018 -2.51263e-017
LeftArm  2.95304 5.24684 -81.8357
LeftForeArm  27.2663 -33.5392 -5.85269
LeftHand  -0.393532 -0.60241 7.73399
RightShoulder  -4.96962e-017 0 -2.36833e-017
RightArm  -14.0595 -12.8319 77.1836
RightForeArm  44.2393 28.1613 3.65982
RightHand  -0.309225 -3.01917 -14.7192
LeftUpLeg  -17.828 1.97031 2.69074
LeftLeg  14.1931 13.5437 2.48607
LeftFoot  4.07544 -0.0356326 1.16258
LeftToes  -22.2707 2.14545e-006 -7.7278e-009
390
root  -10.4334 34.7165 2.15664 -168.256 0.749481 -179.461
RightUpLeg  -12.3708 -6.21399 0.31368
RightLeg  6.2207 -4.28735 -0.188215
RightFoot  5.80344 0.0408617 -0.253652
RightToes  -23.7804 -0.109733 -0.213962
Spine  0.117661 0.515665 0.206731
Spine1  0.176194 1.26102 0.942665
HEad  -53.7055 2.38181 -0.489184
LeftShoulder1  -1.94126e-019 -3.10601e-018 -2.51263e-017
LeftArm  1.61549 8.06754 -81.3982
LeftForeArm  27.6344 -33.5125 -5.82556
LeftHand  -0.389272 -0.556566 7.70619
RightShoulder  -4.96962e-017 0 -2.36833e-017
RightArm  -14.5521 -14.5305 77.3316
RightForeArm  45.0613 26.55 3.28356
RightHand  -0.330881 -2.82986 -14.6381
LeftUpLeg  -14.9859 1.35165 2.47316
LeftLeg  12.3097 14.0608 2.10947
LeftFoot  4.19407 -0.0381948 1.22356
LeftToes  -22.0886 2.14545e-006 -7.7278e-009
391
root  -10.4403 34.7133 1.7417 -169.272 0.622833 -179.662
RightUpLeg  -10.3784 -6.51426 -0.0643783
RightLeg  5.67138 -4.1461 -0.142258
RightFoot  5.48565 0.0366322 -0.217789
RightToes  -24.0331 -0.110137 -0.21426
Spine  -0.422822 0.459667 0.194289
Spine1  -0.911708 1.15556 0.929811
HEad  -55.8676 2.6741 0.337316
LeftShoulder1  -1.94126e-019 -3.10601e-018 -2.51263e-017
LeftArm  0.0799825 10.8099 -81.2042
LeftForeArm  27.7068 -32.6407 -5.60213
LeftHand  -0.395542 -0.421471 7.99914
RightShoulder  -4.96962e-017 0 -2.36833e-017
RightArm  -15.1326 -15.7569 77.5231
RightForeArm  45.9098 23.6479 2.65877
RightHand  -0.337314 -2.76259 -14.5558
LeftUpLeg  -12.4042 0.928963 2.29933
LeftLeg  10.4704 14.3825 1.69225
LeftFoot  4.29385 -0.0396594 1.26656
LeftToes  -21.8847 2.14545e-006 -7.7278e-009
392
root  -10.4333 34.6885 1.39358 -169.916 0.40535 -179.794
RightUpLeg  -8.94474 -7.3062 -0.29013
RightLeg  5.30633 -3.5703 -0.0996976
RightFoot  5.09745 0.0302487 -0.142196
RightToes  -24.1949 -0.1105 -0.214481
Spine  -0.958448 0.409805 0.217783
Spine1  -1.99603 1.07684 0.964961
HEad  -57.6417 2.91426 1.13991
LeftShoulder1  -1.94126e-019 -3.10601e-018 -2.51263e-017
LeftArm  -1.62336 13.4079 -81.1846
LeftForeArm  27.5926 -31.0412 -5.21987
LeftHand  -0.405809 -0.288008 8.386
RightShoulder  -4.96962e-017 0 -2.36833e-017
RightArm  -16.6739 -16.8931 77.8435
RightForeArm  47.5857 20.9097 2.0626
RightHand  -0.36724 -2.49134 -14.4255
LeftUpLeg  -10.4819 0.776102 2.19154
LeftLeg  8.95381 14.3767 1.31126
LeftFoot  4.37995 -0.039306 1.28037
LeftToes  -21.9125 2.14545e-006 -7.7278e-009
393
root  -10.4221 34.6524 1.13994 -170.048 0.30394 -179.888
RightUpLeg  -8.28638 -8.17126 -0.415994
RightLeg  5.11748 -2.81064 -0.0690783
RightFoot  4.71717 0.0239596 -0.0616801
RightToes  -24.2897 -0.110824 -0.214631
Spine  -1.57963 0.436604 0.231127
Spine1  -3.25102 1.14717 0.978074
HEad  -59.189 2.99284 2.00531
LeftShoulder1  -1.94126e-019 -3.10601e-018 -2.51263e-017
LeftArm  -3.11656 15.952 -81.2273
LeftForeArm  27.4592 -28.8772 -4.72355
LeftHand  -0.404922 -0.230154 8.44878
RightShoulder  -4.96962e-017 0 -2.36833e-017
RightArm  -19.7629 -18.1051 78.3202
RightForeArm  49.6315 18.3498 1.50774
RightHand  -0.384926 -2.38358 -14.6059
LeftUpLeg  -9.35539 0.889629 2.11218
LeftLeg  7.73788 14.2179 0.996714
LeftFoot  4.4746 -0.0383144 1.28328
LeftToes  -22.0156 2.14545e-006 -7.7278e-009
394
root  -10.405 34.611 0.92333 -169.993 0.335464 -179.942
RightUpLeg  -7.95837 -8.95191 -0.477023
RightLeg  5.06042 -1.97239 -0.0462578
RightFoot  4.39174 0.0184287 0.0116109
RightToes  -24.4939 -0.111109 -0.214715
Spine  -2.21343 0.488395 0.283545
Spine1  -4.52968 1.25975 1.07079
HEad  -60.177 3.05679 2.63171
LeftShoulder1  -1.94126e-019 -3.10601e-018 -2.51263e-017
LeftArm  -4.36359 18.202 -81.3759
LeftForeArm  27.2352 -25.7825 -4.19198
LeftHand  -0.265543 1.00777 6.98035
RightShoulder  -4.96962e-017 0 -2.36833e-017
RightArm  -23.9404 -19.2036 78.6575
RightForeArm  50.9276 15.5891 1.19245
RightHand  -0.338886 -2.85972 -15.1807
LeftUpLeg  -8.49746 1.36054 2.07087
LeftLeg  6.60718 13.8132 0.698117
LeftFoot  4.62012 -0.0367667 1.27654
LeftToes  -22.2454 2.14545e-006 -7.7278e-009
395
root  -10.3887 34.5608 0.761024 -169.89 0.439285 -179.925
RightUpLeg  -7.97542 -9.44492 -0.462673
RightLeg  5.4106 -1.37471 -0.0403302
RightFoot  3.92976 0.0145265 0.062572
RightToes  -24.6373 -0.111358 -0.214739
Spine  -2.77174 0.514263 0.389632
Spine1  -5.65489 1.30904 1.27455
HEad  -60.8848 3.239 2.81748
LeftShoulder1  -1.94126e-019 -3.10601e-018 -2.51263e-017
LeftArm  -6.62162 20.1648 -81.7467
LeftForeArm  29.4505 -21.5626 -3.57101
LeftHand  -0.397503 -0.175306 8.37178
RightShoulder  -4.96962e-017 0 -2.36833e-017
RightArm  -29.1399 -20.1338 78.5809
RightForeArm  53.0693 12.9832 1.41702
RightHand  -0.299766 -3.2371 -15.6823
LeftUpLeg  -7.8462 2.1147 2.08958
LeftLeg  5.65225 13.2035 0.449457
LeftFoot  4.71361 -0.0331926 1.23726
LeftToes  -22.4976 2.14545e-006 -7.7278e-009
396
root  -10.3789 34.5084 0.629894 -169.986 0.643524 -179.86
RightUpLeg  -8.04301 -9.55611 -0.451572
RightLeg  6.13919 -1.03685 -0.0433225
RightFoot  3.39962 0.0120466 0.0914925
RightToes  -24.9949 -0.111572 -0.214709
Spine  -3.12185 0.487139 0.560209
Spine1  -6.35988 1.24211 1.6043
HEad  -61.9259 3.81283 2.74151
LeftShoulder1  -1.94126e-019 -3.10601e-018 -2.51263e-017
LeftArm  -10.0846 21.809 -82.333
LeftForeArm  31.9938 -16.977 -2.91024
LeftHand  -0.305019 0.378394 7.08731
RightShoulder  -4.96962e-017 0 -2.36833e-017
RightArm  -32.2816 -20.7457 78.0482
RightForeArm  55.8025 10.9791 1.54054
RightHand  -0.293184 -3.00313 -13.8276
LeftUpLeg  -7.83201 2.902 2.16312
LeftLeg  6.36492 12.5742 0.58365
LeftFoot  4.04952 -0.0187396 1.02779
LeftToes  -22.8295 2.14545e-006 -7.7278e-009
